<svg width="27" height="15" viewBox="0 0 27 15" fill="none" xmlns="http://www.w3.org/2000/svg">
<path d="M7 12.5C9.76145 12.5 12 10.2614 12 7.5C12 4.73856 9.76145 2.5 7 2.5C4.23856 2.5 2 4.73856 2 7.5C2 10.2614 4.23856 12.5 7 12.5Z" fill="#F1F1F1" stroke="#F1F1F1" stroke-width="4"/>
<path d="M26.3536 7.85355C26.5488 7.65829 26.5488 7.34171 26.3536 7.14645L23.1716 3.96447C22.9763 3.7692 22.6597 3.7692 22.4645 3.96447C22.2692 4.15973 22.2692 4.47631 22.4645 4.67157L25.2929 7.5L22.4645 10.3284C22.2692 10.5237 22.2692 10.8403 22.4645 11.0355C22.6597 11.2308 22.9763 11.2308 23.1716 11.0355L26.3536 7.85355ZM11 8H26V7H11V8Z" fill="#F1F1F1"/>
</svg>
